<?xml version="1.0" standalone="no"?>
<!DOCTYPE svg PUBLIC "-//W3C//DTD SVG 20010904//EN"
 "http://www.w3.org/TR/2001/REC-SVG-20010904/DTD/svg10.dtd">
<svg version="1.0" xmlns="http://www.w3.org/2000/svg"
 width="636.000000pt" height="636.000000pt" viewBox="0 0 636.000000 636.000000"
 preserveAspectRatio="xMidYMid meet">
<metadata>
Created by potrace 1.14, written by Peter Selinger 2001-2017
</metadata>
<g transform="translate(0.000000,636.000000) scale(0.100000,-0.100000)"
fill="#000000" stroke="none">
<path d="M3188 5776 c-1 -2 -49 -6 -105 -9 -57 -3 -107 -8 -111 -11 -5 -3 -24
-8 -42 -11 -49 -9 -140 -41 -153 -54 -6 -6 -17 -11 -24 -11 -53 0 -242 -171
-306 -277 -50 -82 -117 -252 -126 -318 -1 -3 -1 -6 -2 -7 0 -2 -2 -12 -3 -23
-12 -90 -17 -123 -21 -145 -2 -14 -7 -47 -10 -75 -4 -27 -8 -65 -11 -82 -2
-18 -6 -48 -8 -65 -3 -18 -7 -55 -11 -83 -4 -27 -8 -61 -10 -75 -2 -14 -7 -50
-10 -80 -3 -30 -8 -62 -10 -70 -2 -8 -6 -40 -10 -70 -3 -30 -7 -64 -9 -75 -2
-11 -7 -49 -11 -85 -3 -36 -8 -72 -10 -80 -3 -13 -10 -64 -20 -150 -2 -14 -6
-41 -8 -60 -3 -19 -8 -60 -12 -90 -3 -30 -10 -82 -15 -115 -5 -33 -12 -87 -16
-120 -3 -33 -8 -69 -10 -80 -3 -11 -7 -40 -10 -65 -3 -25 -7 -61 -10 -80 -5
-35 -8 -63 -18 -149 -3 -24 -8 -61 -11 -82 -3 -22 -7 -56 -10 -77 -3 -21 -7
-47 -9 -57 -2 -11 -7 -49 -11 -85 -4 -36 -9 -72 -10 -81 -2 -9 -6 -40 -10 -70
-4 -30 -9 -67 -11 -82 -7 -56 -15 -113 -20 -149 -3 -20 -7 -54 -9 -75 -2 -21
-6 -54 -9 -73 -3 -19 -8 -55 -11 -80 -2 -25 -6 -54 -9 -65 -2 -11 -7 -49 -11
-85 -4 -36 -9 -73 -10 -82 -2 -9 -7 -48 -10 -85 -4 -37 -9 -70 -10 -73 -2 -3
-6 -30 -10 -60 -3 -30 -8 -66 -10 -80 -2 -14 -7 -51 -10 -83 -4 -32 -8 -68
-11 -80 -2 -11 -6 -39 -9 -62 -9 -60 -46 -128 -78 -143 -24 -12 -32 -11 -52 2
-26 17 -43 43 -48 73 -1 10 -6 23 -9 29 -7 10 -40 169 -52 244 -3 19 -8 45
-10 56 -2 12 -7 39 -10 60 -4 22 -8 46 -11 54 -2 8 -6 31 -9 50 -3 19 -8 46
-10 60 -3 14 -9 52 -15 85 -6 33 -12 71 -15 85 -4 24 -22 125 -30 165 -2 11
-7 40 -11 65 -9 56 -13 78 -20 110 -3 14 -7 40 -10 58 -2 18 -6 45 -10 60 -10
47 -15 76 -21 112 -3 19 -14 85 -25 145 -11 61 -22 125 -25 144 -3 18 -8 43
-10 55 -3 11 -7 37 -9 56 -3 19 -7 46 -10 60 -3 14 -8 39 -10 55 -3 17 -8 41
-10 55 -10 46 -15 75 -25 130 -5 30 -12 71 -16 90 -3 19 -8 46 -10 60 -6 37
-11 61 -18 100 -9 51 -15 90 -22 130 -3 19 -7 42 -9 50 -3 8 -7 32 -11 54 -3
21 -8 48 -10 60 -5 24 -7 36 -28 161 -9 50 -18 101 -21 115 -3 14 -9 50 -15
80 -5 30 -12 69 -15 85 -3 17 -8 46 -11 65 -3 19 -16 96 -30 170 -14 74 -27
149 -30 165 -2 17 -6 41 -9 55 -7 31 -10 52 -30 165 -69 405 -78 444 -117 518
-60 111 -153 181 -287 214 -56 13 -275 12 -331 -3 -135 -36 -223 -109 -260
-217 -15 -47 -18 -77 -15 -145 5 -89 6 -98 20 -167 5 -22 10 -49 11 -60 1 -11
3 -20 4 -20 1 0 3 -9 5 -20 4 -23 17 -83 22 -105 1 -8 5 -26 7 -40 15 -89 26
-144 31 -159 2 -9 7 -30 9 -46 3 -17 7 -42 10 -57 3 -16 8 -39 10 -53 4 -20
32 -161 41 -200 1 -5 6 -32 10 -60 10 -56 12 -64 14 -67 2 -2 4 -15 6 -31 2
-15 9 -51 15 -80 6 -30 13 -67 16 -83 3 -16 7 -36 9 -44 2 -8 7 -31 10 -50 3
-19 8 -48 12 -65 3 -16 7 -37 9 -45 1 -8 12 -64 24 -125 11 -60 23 -121 26
-135 2 -14 7 -36 10 -50 3 -14 8 -36 10 -50 2 -14 7 -36 10 -50 3 -14 8 -38
10 -54 2 -15 6 -36 9 -46 3 -10 7 -31 10 -46 2 -16 13 -72 23 -124 11 -52 23
-111 26 -130 3 -19 10 -60 16 -90 11 -52 14 -70 24 -122 3 -13 12 -61 21 -108
9 -47 18 -96 20 -110 2 -14 4 -25 5 -25 2 0 5 -13 20 -95 7 -36 14 -75 15 -87
2 -11 6 -31 10 -43 4 -12 8 -32 10 -43 2 -20 40 -212 51 -262 4 -19 11 -59 19
-112 2 -11 6 -29 9 -40 3 -10 8 -34 11 -53 3 -19 12 -66 20 -105 8 -38 16 -81
19 -95 50 -285 109 -486 193 -655 138 -277 316 -417 613 -480 66 -14 347 -15
400 -2 14 4 36 9 49 12 168 33 330 141 444 296 63 85 166 325 183 427 3 15 7
35 10 44 7 24 27 131 38 203 2 17 7 48 11 70 3 22 8 60 10 84 2 24 7 60 10 80
2 20 7 54 9 76 3 22 7 56 10 75 8 57 25 182 31 230 3 25 7 54 9 65 2 11 7 47
10 80 4 33 9 71 11 85 2 14 6 43 9 65 5 35 12 86 21 165 7 58 16 127 21 150 2
14 7 48 10 75 2 28 6 61 9 75 2 14 7 49 10 79 4 30 8 62 10 71 2 9 6 41 10 71
3 30 8 65 10 79 4 24 14 106 20 160 5 42 15 113 21 155 8 54 11 80 19 145 4
30 8 62 10 70 1 8 6 42 10 75 7 65 14 116 20 155 2 14 6 48 10 75 14 113 17
140 30 228 3 21 8 59 11 85 3 26 7 58 9 72 2 14 6 45 10 70 3 25 8 63 12 85 4
22 6 43 5 46 -5 21 40 260 54 287 40 81 128 50 150 -53 8 -41 21 -123 29 -195
3 -25 7 -56 10 -69 2 -13 7 -49 10 -80 3 -31 7 -67 10 -81 2 -14 7 -43 9 -65
11 -83 17 -132 26 -200 5 -38 12 -92 16 -120 3 -27 8 -61 10 -75 2 -14 6 -45
9 -70 2 -25 7 -61 10 -80 4 -19 8 -48 10 -65 11 -92 23 -180 25 -180 0 0 3
-20 5 -45 6 -61 14 -130 30 -235 4 -22 8 -58 10 -80 2 -22 6 -53 9 -70 3 -16
7 -50 11 -75 5 -41 11 -84 20 -150 2 -14 7 -50 10 -80 4 -30 9 -71 11 -90 3
-19 7 -51 9 -70 2 -19 6 -46 9 -60 2 -14 8 -52 11 -85 4 -33 9 -71 11 -85 2
-14 6 -41 8 -60 2 -19 7 -51 10 -70 3 -19 8 -57 11 -85 3 -27 7 -61 9 -75 4
-25 12 -80 22 -170 3 -25 7 -56 9 -70 8 -43 16 -96 19 -131 2 -19 6 -52 10
-74 3 -22 8 -60 11 -85 3 -25 7 -56 10 -70 2 -14 6 -46 9 -71 3 -26 8 -53 10
-60 3 -8 7 -31 10 -51 7 -44 40 -171 56 -214 6 -16 11 -30 11 -32 -1 -1 6 -18
14 -38 8 -20 15 -38 15 -40 0 -2 10 -26 22 -52 63 -138 197 -294 311 -361 61
-36 206 -88 266 -96 20 -3 47 -7 61 -10 30 -6 223 -6 265 0 17 2 48 7 70 10
101 14 232 66 325 128 75 50 230 216 230 246 0 5 4 11 9 13 9 3 111 199 116
222 1 6 5 20 9 31 39 104 95 325 120 470 2 17 9 53 15 80 6 28 14 66 16 85 3
19 8 42 10 50 2 8 7 29 10 45 2 17 7 41 10 55 3 14 8 40 10 59 3 18 7 36 9 40
3 3 7 25 10 47 7 42 12 73 21 114 3 14 7 36 10 50 3 14 7 36 10 50 2 14 7 41
10 60 3 19 8 42 10 50 2 8 7 30 10 49 3 19 7 37 9 40 2 3 7 28 10 55 4 27 9
52 11 56 2 3 6 26 10 50 3 25 10 61 15 80 5 19 11 49 14 65 11 58 26 140 31
165 3 14 7 36 10 50 3 14 7 36 10 50 11 54 56 286 60 310 9 48 24 125 30 150
3 14 8 39 10 55 4 28 8 45 21 105 3 14 7 36 9 50 1 14 8 48 15 75 6 28 13 63
15 78 2 16 6 40 10 55 3 15 8 38 11 52 5 23 9 44 19 107 2 13 6 26 9 31 2 4 7
28 10 52 3 25 8 56 11 70 3 14 10 48 15 75 6 28 12 61 15 75 3 14 8 41 11 60
3 19 10 53 15 75 5 22 12 54 15 70 3 17 28 145 55 285 50 259 52 270 65 350
32 208 -71 359 -282 414 -59 16 -263 17 -327 2 -192 -45 -315 -191 -342 -406
-4 -30 -9 -58 -11 -61 -2 -4 -6 -28 -9 -55 -4 -26 -8 -51 -10 -54 -2 -4 -6
-20 -9 -36 -5 -32 -19 -116 -21 -124 -2 -7 -17 -102 -21 -125 -1 -11 -8 -45
-14 -75 -6 -30 -13 -71 -16 -90 -3 -19 -12 -69 -19 -110 -31 -164 -35 -186
-39 -215 -2 -16 -14 -82 -25 -145 -11 -63 -23 -131 -26 -150 -3 -19 -8 -42
-10 -50 -3 -8 -7 -32 -9 -54 -3 -21 -8 -46 -10 -55 -3 -9 -8 -36 -11 -61 -3
-25 -8 -52 -10 -60 -2 -8 -7 -31 -10 -50 -3 -19 -8 -48 -12 -65 -4 -16 -7 -37
-8 -45 -3 -28 -21 -128 -24 -132 -1 -2 -4 -19 -6 -38 -3 -19 -7 -46 -10 -60
-3 -14 -8 -38 -10 -55 -5 -28 -69 -387 -79 -445 -3 -14 -7 -41 -10 -60 -3 -19
-8 -46 -11 -60 -4 -22 -18 -96 -30 -170 -3 -14 -10 -52 -16 -85 -6 -33 -12
-72 -14 -86 -2 -14 -11 -64 -20 -110 -9 -46 -18 -100 -21 -119 -3 -19 -7 -42
-9 -50 -3 -8 -7 -33 -10 -55 -4 -22 -9 -51 -11 -65 -3 -14 -7 -34 -9 -45 -1
-11 -8 -47 -14 -80 -6 -33 -12 -71 -15 -85 -2 -14 -7 -43 -11 -65 -4 -22 -9
-49 -11 -60 -2 -11 -6 -31 -8 -45 -3 -14 -8 -41 -10 -60 -7 -46 -21 -113 -31
-150 -1 -3 -5 -18 -10 -35 -21 -78 -54 -116 -95 -108 -39 7 -65 38 -80 95 -18
70 -18 71 -35 223 -3 28 -8 60 -10 73 -3 12 -8 44 -10 70 -5 43 -10 82 -20
152 -2 14 -6 45 -9 70 -7 55 -14 113 -21 161 -3 20 -8 54 -10 75 -5 41 -14
102 -20 144 -2 14 -9 68 -15 120 -6 52 -13 106 -16 120 -2 14 -6 45 -9 70 -3
25 -8 59 -10 75 -2 17 -9 71 -16 120 -6 50 -12 99 -14 110 -2 11 -5 41 -9 65
-3 25 -8 68 -12 95 -4 28 -8 64 -10 80 -1 17 -3 30 -4 30 -1 0 -3 10 -15 114
-4 29 -9 65 -11 79 -3 14 -7 44 -9 67 -2 22 -6 51 -9 65 -2 14 -7 52 -11 85
-4 32 -8 66 -10 75 -1 8 -6 42 -9 75 -8 71 -12 96 -26 195 -6 41 -12 91 -15
110 -5 50 -15 131 -20 160 -2 14 -6 43 -9 65 -4 22 -8 58 -11 80 -3 22 -8 58
-10 80 -3 22 -7 56 -10 75 -3 19 -7 55 -10 80 -6 46 -12 89 -20 150 -2 19 -7
53 -10 75 -17 133 -47 260 -71 307 -8 15 -12 28 -9 28 10 0 -48 104 -94 170
-56 81 -158 182 -213 211 -12 6 -25 15 -28 18 -3 4 -38 21 -78 39 -77 34 -182
61 -267 68 -27 3 -55 6 -62 9 -6 2 -13 2 -15 1z"/>
</g>
</svg>
